# xmcd
#
# Track frame offsets:
#	150
#	12717
#	28506
#	43557
#	56463
#	68416
#	84121
#	95998
#	112649
#	127309
#	144703
#	160892
#
# Disc length: 2328 seconds
#
# Revision: 0
# Processed by: cddbd v1.5.2PL0 Copyright (c) Steve Scherf et al.
# Submitted via: dBpowerAMP V4.0
#
DISCID=9b09160c
DTITLE=John Williamson - The Very Best Of John Williamson
DYEAR=2006
DGENRE=Country
TTITLE0=You and My Guitar
TTITLE1=Goodby Blinky Bill
TTITLE2=Just A Dog
TTITLE3=Old Man Emu
TTITLE4=The Shed
TTITLE5=Im Fair Dinkum
TTITLE6=Bus Town (The lawnmower sony)
TTITLE7=Dads Flowers
TTITLE8=Billabong
TTITLE9=The Vasectomy Song
TTITLE10=Stuffed if I Know
TTITLE11=Home Among the Gum Trees
EXTD=
EXTT0=
EXTT1=
EXTT2=
EXTT3=
EXTT4=
EXTT5=
EXTT6=
EXTT7=
EXTT8=
EXTT9=
EXTT10=
EXTT11=
PLAYORDER=
